<?xml version="1.0" encoding="UTF-8"?>
<svg id="Layer_1" xmlns="http://www.w3.org/2000/svg" version="1.1" viewBox="0 0 700 80">
  <!-- Generator: Adobe Illustrator 30.8.0, SVG Export Plug-In . SVG Version: 2.1.4 Build 7)  -->
  <defs>
    <style>
      .st0 {
        fill: #fff;
      }
    </style>
  </defs>
  <path class="st0" d="M24.18,79.1l-9.19-28.25h-1.86v28.25H0V.9h16.96c3.72,0,7,.87,9.85,2.6,2.84,1.73,5.01,4.07,6.51,7.01,1.49,2.94,2.24,6.18,2.24,9.72v11.3c0,3.62-.78,6.93-2.35,9.94-1.57,3.01-3.77,5.35-6.62,7.01l12.03,30.62h-14.44ZM13.13,37.97h3.5c1.97,0,3.43-.62,4.38-1.86.95-1.24,1.42-2.88,1.42-4.92v-10.62c0-2.03-.48-3.67-1.42-4.92-.95-1.24-2.41-1.86-4.38-1.86h-3.5v24.18Z"/>
  <rect class="st0" x="73.95" y=".9" width="13.13" height="78.19"/>
  <path class="st0" d="M149.76,22.6c0-3.09-.46-5.48-1.37-7.17-.91-1.69-2.28-2.54-4.1-2.54s-3.34.87-4.32,2.6c-.98,1.73-1.48,4.11-1.48,7.12v34.8c0,3.01.49,5.39,1.48,7.12.98,1.73,2.42,2.6,4.32,2.6s3.34-.87,4.32-2.6c.98-1.73,1.48-4.1,1.48-7.12v-5.42h13.13v5.76c0,4.29-.78,8.12-2.35,11.47-1.57,3.35-3.77,5.99-6.62,7.91-2.84,1.92-6.16,2.88-9.95,2.88s-7.02-.96-9.9-2.88c-2.88-1.92-5.11-4.56-6.67-7.91-1.57-3.35-2.35-7.18-2.35-11.47V22.26c0-4.29.78-8.12,2.35-11.47,1.57-3.35,3.79-5.99,6.67-7.91C137.27.96,140.57,0,144.29,0s6.98.98,9.79,2.94c2.81,1.96,4.98,4.62,6.51,7.97,1.53,3.35,2.3,7.14,2.3,11.36v4.63h-13.13v-4.29Z"/>
  <polygon class="st0" points="199.64 .9 212.77 .9 212.77 31.86 223.93 31.86 223.93 .9 237.05 .9 237.05 79.1 223.93 79.1 223.93 44.75 212.77 44.75 212.77 79.1 199.64 79.1 199.64 .9"/>
  <rect class="st0" x="277.2" y=".9" width="13.13" height="78.19"/>
  <polygon class="st0" points="330.47 .9 363.29 .9 363.29 13.79 343.6 13.79 343.6 31.86 358.92 31.86 358.92 44.75 343.6 44.75 343.6 66.21 363.84 66.21 363.84 79.1 330.47 79.1 330.47 .9"/>
  <path class="st0" d="M440.85,51.98h13.13v5.42c0,3.01.44,5.39,1.31,7.12.88,1.73,2.22,2.6,4.05,2.6s3.08-.64,3.99-1.92c.91-1.28,1.37-3.01,1.37-5.2s-.48-4.58-1.42-6.95c-.95-2.37-2.48-4.46-4.59-6.27l-7.55-6.67c-6.56-5.8-9.85-12.39-9.85-19.77,0-3.62.71-6.97,2.13-10.06,1.42-3.09,3.48-5.57,6.18-7.46C452.3.94,455.47,0,459.12,0c5.54,0,9.9,2.09,13.07,6.27,3.17,4.18,4.76,9.51,4.76,15.99v4.63h-13.13v-4.29c0-6.48-1.57-9.72-4.7-9.72-1.53,0-2.7.64-3.5,1.92-.8,1.28-1.2,2.82-1.2,4.63s.44,3.64,1.31,5.25c.88,1.62,2.26,3.3,4.16,5.03l7.44,6.55c3.5,3.01,6.13,6.5,7.88,10.45,1.75,3.95,2.63,8,2.63,12.15s-.77,7.59-2.3,10.79c-1.53,3.2-3.7,5.73-6.51,7.57-2.81,1.85-6.04,2.77-9.68,2.77-5.62,0-10.1-2.07-13.46-6.21-3.36-4.14-5.03-9.49-5.03-16.05v-5.76Z"/>
  <path class="st0" d="M512.72,22.26c0-4.22.82-8.02,2.46-11.41,1.64-3.39,3.96-6.04,6.95-7.97,2.99-1.92,6.42-2.88,10.28-2.88s7.29.96,10.28,2.88c2.99,1.92,5.31,4.58,6.95,7.97,1.64,3.39,2.46,7.19,2.46,11.41v35.48c0,4.22-.82,8.02-2.46,11.41-1.64,3.39-3.96,6.04-6.95,7.97-2.99,1.92-6.42,2.88-10.28,2.88s-7.29-.96-10.28-2.88c-2.99-1.92-5.31-4.58-6.95-7.97-1.64-3.39-2.46-7.19-2.46-11.41V22.26ZM527.6,64.46c1.17,1.77,2.77,2.66,4.81,2.66s3.74-.88,4.87-2.66c1.13-1.77,1.7-4.12,1.7-7.06V22.6c0-2.94-.57-5.29-1.7-7.06-1.13-1.77-2.75-2.66-4.87-2.66s-3.65.89-4.81,2.66c-1.17,1.77-1.75,4.12-1.75,7.06v34.8c0,2.94.58,5.29,1.75,7.06"/>
  <path class="st0" d="M590.06.9h13.13v56.5c0,3.01.49,5.39,1.48,7.12.98,1.73,2.42,2.6,4.32,2.6s3.34-.87,4.32-2.6c.98-1.73,1.48-4.11,1.48-7.12V.9h13.13v56.84c0,4.29-.78,8.12-2.35,11.47-1.57,3.35-3.77,5.99-6.62,7.91-2.84,1.92-6.16,2.88-9.95,2.88s-7.02-.96-9.9-2.88c-2.88-1.92-5.11-4.56-6.67-7.91-1.57-3.35-2.35-7.17-2.35-11.47V.9Z"/>
  <polygon class="st0" points="667.73 .9 700 .9 700 13.79 680.86 13.79 680.86 31.86 696.17 31.86 696.17 44.75 680.86 44.75 680.86 79.1 667.73 79.1 667.73 .9"/>
</svg>